# Blender v2.78 (sub 0) OBJ File: 'Couch.blend'
# www.blender.org
mtllib Couch.mtl
o Cube.002_Cube.003
v -4.149107 -1.000000 1.000000
v -4.149107 -1.000000 -1.312313
v -4.149107 1.273251 -1.312313
v -3.452978 -1.000000 1.000000
v -3.452978 -1.000000 -1.312313
v -3.452978 1.273251 -1.312313
v -4.149107 0.814496 1.000000
v -4.149107 1.273251 0.596388
v -4.149107 0.933231 0.986247
v -4.149107 1.043874 0.945926
v -4.149107 1.138885 0.881785
v -4.149107 1.211790 0.798194
v -4.149107 1.257620 0.700851
v -3.452978 1.273251 0.596388
v -3.452978 0.814496 1.000000
v -3.452978 1.257620 0.700851
v -3.452978 1.211790 0.798194
v -3.452978 1.138885 0.881785
v -3.452978 1.043874 0.945926
v -3.452978 0.933231 0.986247
v -3.456684 0.835041 -1.316587
v -3.456684 2.271291 -1.316587
v -3.456684 1.743413 -0.733626
v -3.456684 2.271291 -0.947887
v -3.456684 1.880038 -0.740927
v -3.456684 2.007352 -0.762331
v -3.456684 2.116679 -0.796381
v -3.456684 2.200568 -0.840756
v -3.456684 2.253304 -0.892432
v -3.456684 0.835041 -0.949560
v -3.456684 1.367041 -0.733626
v -3.456684 0.861079 -0.882833
v -3.456684 0.936644 -0.822637
v -3.456684 1.054339 -0.774866
v -3.456684 1.202644 -0.744194
v -3.456684 -0.999260 -1.316587
v -3.456684 -0.999260 -0.949560
v -3.452978 -1.000000 -0.818706
v -3.452978 0.602085 1.000000
v -3.452978 1.000000 0.602085
v -3.452978 0.725047 0.980525
v -3.452978 0.835974 0.924005
v -3.452978 0.924005 0.835974
v -3.452978 0.980525 0.725047
v -3.452978 -1.000000 0.905429
v -3.452978 -0.905429 1.000000
v -3.452978 -0.987330 0.952715
v -3.452978 -0.952715 0.987330
v -3.452978 1.000000 -0.724136
v -3.452978 0.905429 -0.818706
v -3.452978 0.987330 -0.771421
v -3.452978 0.952715 -0.806036
v 4.285456 -1.000000 1.000000
v 4.285456 -1.000000 -1.312313
v 4.285456 1.273251 -1.312313
v 3.589328 -1.000000 1.000000
v 3.589328 -1.000000 -1.312313
v 3.589328 1.273251 -1.312313
v 4.285456 0.814496 1.000000
v 4.285456 1.273251 0.596388
v 4.285456 0.933231 0.986247
v 4.285456 1.043874 0.945926
v 4.285456 1.138885 0.881785
v 4.285456 1.211790 0.798194
v 4.285456 1.257620 0.700851
v 3.589328 1.273251 0.596388
v 3.589328 0.814496 1.000000
v 3.589328 1.257620 0.700851
v 3.589328 1.211790 0.798194
v 3.589328 1.138885 0.881785
v 3.589328 1.043874 0.945926
v 3.589328 0.933231 0.986247
v 3.593034 0.835041 -1.316587
v 3.593034 2.271291 -1.316587
v 3.593034 1.743413 -0.733626
v 3.593034 2.271291 -0.947887
v 3.593034 1.880038 -0.740927
v 3.593034 2.007352 -0.762331
v 3.593034 2.116679 -0.796381
v 3.593034 2.200568 -0.840756
v 3.593034 2.253304 -0.892432
v 3.593034 0.835041 -0.949560
v 3.593034 1.367041 -0.733626
v 3.593034 0.861079 -0.882833
v 3.593034 0.936644 -0.822637
v 3.593034 1.054339 -0.774866
v 3.593034 1.202644 -0.744194
v 3.593034 -0.999260 -1.316587
v 3.593034 -0.999260 -0.949560
v 3.589328 -1.000000 -0.818706
v 3.589328 0.602085 1.000000
v 3.589328 1.000000 0.602085
v 3.589328 0.725047 0.980525
v 3.589328 0.835974 0.924005
v 3.589328 0.924005 0.835974
v 3.589328 0.980525 0.725047
v 3.589328 -1.000000 0.905429
v 3.589328 -0.905429 1.000000
v 3.589328 -0.987330 0.952715
v 3.589328 -0.952715 0.987330
v 3.589328 1.000000 -0.724136
v 3.589328 0.905429 -0.818706
v 3.589328 0.987330 -0.771421
v 3.589328 0.952715 -0.806036
v 0.068175 1.000000 0.602085
v 0.068175 0.980525 0.725047
v 0.068175 0.924005 0.835974
v 0.068175 0.835974 0.924005
v 0.068175 0.725047 0.980525
v 0.068175 0.602085 1.000000
v 0.068175 1.000000 -0.724136
v 0.068175 0.987330 -0.771421
v 0.068175 0.952715 -0.806036
v 0.068175 0.905429 -0.818706
v 0.068175 -1.000000 0.905429
v 0.068175 -0.987330 0.952715
v 0.068175 -0.952715 0.987330
v 0.068175 -0.905429 1.000000
v 0.068175 0.835041 -1.316587
v 0.068175 2.271291 -1.316587
v 0.068175 2.271291 -0.947887
v 0.068175 2.253304 -0.892432
v 0.068175 2.200568 -0.840756
v 0.068175 2.116679 -0.796381
v 0.068175 2.007352 -0.762331
v 0.068175 1.880038 -0.740927
v 0.068175 1.743413 -0.733626
v 0.068175 0.835041 -0.949560
v 0.068175 0.861079 -0.882833
v 0.068175 0.936644 -0.822637
v 0.068175 1.054339 -0.774866
v 0.068175 1.202644 -0.744194
v 0.068175 1.367041 -0.733626
v 0.068175 -0.999260 -1.316587
vn 0.0000 1.0000 -0.0000
vn -0.0000 0.0000 -1.0000
vn -1.0000 0.0000 0.0000
vn 0.0000 -1.0000 0.0000
vn 1.0000 -0.0000 0.0000
vn 0.0000 0.9890 0.1480
vn 0.0000 0.9047 0.4260
vn -0.0000 0.7536 0.6573
vn -0.0000 0.5595 0.8288
vn 0.0000 0.3424 0.9396
vn 0.0000 0.1151 0.9934
vn 0.0000 0.0000 1.0000
vn 0.0000 0.9512 0.3085
vn 0.0000 0.6999 0.7142
vn 0.0000 0.4676 0.8840
vn -0.0000 0.2974 0.9548
vn -0.0000 0.1658 0.9862
vn -0.0000 0.0534 0.9986
vn -0.0000 0.9877 0.1564
vn -0.0000 0.8910 0.4540
vn 0.0000 0.7071 0.7071
vn 0.0000 0.4540 0.8910
vn 0.0000 0.1564 0.9877
vn 0.0000 -0.2588 0.9659
vn 0.0000 -0.7071 0.7071
vn 0.0000 -0.9659 0.2588
vn -0.0000 0.2588 -0.9659
vn 0.0000 0.7071 -0.7071
vn 0.0000 0.9659 -0.2588
vn -0.0000 -0.0642 0.9979
vn -0.0000 -0.2025 0.9793
vn -0.0000 -0.3761 0.9266
vn -0.0000 -0.6231 0.7822
vn 0.0000 -0.9316 0.3635
vn -0.0000 -1.0000 -0.0003
vn 0.1957 0.9807 -0.0000
vn -0.1957 0.9807 -0.0000
usemtl None
s off
f 6//1 3//1 8//1 14//1
f 2//2 3//2 6//2 5//2
f 1//3 7//3 9//3 10//3 11//3 12//3 13//3 8//3 3//3 2//3
f 2//4 5//4 4//4 1//4
f 5//5 6//5 14//5 16//5 17//5 18//5 19//5 20//5 15//5 4//5
f 14//6 8//6 13//6 16//6
f 16//7 13//7 12//7 17//7
f 17//8 12//8 11//8 18//8
f 18//9 11//9 10//9 19//9
f 19//10 10//10 9//10 20//10
f 20//11 9//11 7//11 15//11
f 4//12 15//12 7//12 1//12
f 120//1 22//1 24//1 121//1
f 133//12 127//12 23//12 31//12
f 121//13 24//13 29//13 122//13
f 122//14 29//14 28//14 123//14
f 123//15 28//15 27//15 124//15
f 124//16 27//16 26//16 125//16
f 125//17 26//17 25//17 126//17
f 126//18 25//18 23//18 127//18
f 30//3 32//3 33//3 34//3 35//3 31//3 23//3 25//3 26//3 27//3 28//3 29//3 24//3 22//3 21//3
f 30//3 21//3 36//3 37//3
f 111//1 49//1 40//1 105//1
f 118//12 110//12 39//12 46//12
f 105//19 40//19 44//19 106//19
f 106//20 44//20 43//20 107//20
f 107//21 43//21 42//21 108//21
f 108//22 42//22 41//22 109//22
f 109//23 41//23 39//23 110//23
f 45//3 47//3 48//3 46//3 39//3 41//3 42//3 43//3 44//3 40//3 49//3 51//3 52//3 50//3 38//3
f 48//24 117//24 118//24 46//24
f 47//25 116//25 117//25 48//25
f 45//26 115//26 116//26 47//26
f 52//27 113//27 114//27 50//27
f 51//28 112//28 113//28 52//28
f 49//29 111//29 112//29 51//29
f 21//2 119//2 134//2 36//2
f 35//30 132//30 133//30 31//30
f 34//31 131//31 132//31 35//31
f 33//32 130//32 131//32 34//32
f 32//33 129//33 130//33 33//33
f 30//34 128//34 129//34 32//34
f 21//2 22//2 120//2 119//2
f 134//35 115//35 45//35 36//35
f 45//36 38//36 36//36
f 58//1 66//1 60//1 55//1
f 54//2 57//2 58//2 55//2
f 53//5 54//5 55//5 60//5 65//5 64//5 63//5 62//5 61//5 59//5
f 54//4 53//4 56//4 57//4
f 57//3 56//3 67//3 72//3 71//3 70//3 69//3 68//3 66//3 58//3
f 66//6 68//6 65//6 60//6
f 68//7 69//7 64//7 65//7
f 69//8 70//8 63//8 64//8
f 70//9 71//9 62//9 63//9
f 71//10 72//10 61//10 62//10
f 72//11 67//11 59//11 61//11
f 56//12 53//12 59//12 67//12
f 120//1 121//1 76//1 74//1
f 133//12 83//12 75//12 127//12
f 121//13 122//13 81//13 76//13
f 122//14 123//14 80//14 81//14
f 123//15 124//15 79//15 80//15
f 124//16 125//16 78//16 79//16
f 125//17 126//17 77//17 78//17
f 126//18 127//18 75//18 77//18
f 82//5 73//5 74//5 76//5 81//5 80//5 79//5 78//5 77//5 75//5 83//5 87//5 86//5 85//5 84//5
f 82//5 89//5 88//5 73//5
f 111//1 105//1 92//1 101//1
f 118//12 98//12 91//12 110//12
f 105//19 106//19 96//19 92//19
f 106//20 107//20 95//20 96//20
f 107//21 108//21 94//21 95//21
f 108//22 109//22 93//22 94//22
f 109//23 110//23 91//23 93//23
f 97//5 90//5 102//5 104//5 103//5 101//5 92//5 96//5 95//5 94//5 93//5 91//5 98//5 100//5 99//5
f 100//24 98//24 118//24 117//24
f 99//25 100//25 117//25 116//25
f 97//26 99//26 116//26 115//26
f 104//27 102//27 114//27 113//27
f 103//28 104//28 113//28 112//28
f 101//29 103//29 112//29 111//29
f 73//2 88//2 134//2 119//2
f 87//30 83//30 133//30 132//30
f 86//31 87//31 132//31 131//31
f 85//32 86//32 131//32 130//32
f 84//33 85//33 130//33 129//33
f 82//34 84//34 129//34 128//34
f 73//2 119//2 120//2 74//2
f 134//35 88//35 97//35 115//35
f 97//37 88//37 90//37
l 37 38
l 89 90
