# Blender v2.78 (sub 0) OBJ File: 'Lamp.blend'
# www.blender.org
mtllib Lamp.mtl
o Pole_Cylinder.002
v 0.000000 -0.209121 -0.020851
v 0.000000 0.517603 -0.020851
v 0.004068 -0.209121 -0.020451
v 0.004068 0.517603 -0.020451
v 0.007979 -0.209121 -0.019264
v 0.007979 0.517603 -0.019264
v 0.011584 -0.209121 -0.017337
v 0.011584 0.517603 -0.017337
v 0.014744 -0.209121 -0.014744
v 0.014744 0.517603 -0.014744
v 0.017337 -0.209121 -0.011584
v 0.017337 0.517603 -0.011584
v 0.019264 -0.209121 -0.007979
v 0.019264 0.517603 -0.007979
v 0.020450 -0.209121 -0.004068
v 0.020450 0.517603 -0.004068
v 0.020851 -0.209121 -0.000000
v 0.020851 0.517603 -0.000000
v 0.020450 -0.209121 0.004068
v 0.020450 0.517603 0.004068
v 0.019264 -0.209121 0.007979
v 0.019264 0.517603 0.007979
v 0.017337 -0.209121 0.011584
v 0.017337 0.517603 0.011584
v 0.014744 -0.209121 0.014744
v 0.014744 0.517603 0.014744
v 0.011584 -0.209121 0.017337
v 0.011584 0.517603 0.017337
v 0.007979 -0.209121 0.019264
v 0.007979 0.517603 0.019264
v 0.004068 -0.209121 0.020450
v 0.004068 0.517603 0.020450
v 0.000000 -0.209121 0.020851
v 0.000000 0.517603 0.020851
v -0.004068 -0.209121 0.020450
v -0.004068 0.517603 0.020450
v -0.007979 -0.209121 0.019264
v -0.007979 0.517603 0.019264
v -0.011584 -0.209121 0.017337
v -0.011584 0.517603 0.017337
v -0.014744 -0.209121 0.014744
v -0.014744 0.517603 0.014744
v -0.017337 -0.209121 0.011584
v -0.017337 0.517603 0.011584
v -0.019264 -0.209121 0.007979
v -0.019264 0.517603 0.007979
v -0.020450 -0.209121 0.004068
v -0.020450 0.517603 0.004068
v -0.020851 -0.209121 -0.000000
v -0.020851 0.517603 -0.000000
v -0.020450 -0.209121 -0.004068
v -0.020450 0.517603 -0.004068
v -0.019264 -0.209121 -0.007979
v -0.019264 0.517603 -0.007979
v -0.017337 -0.209121 -0.011584
v -0.017337 0.517603 -0.011584
v -0.014744 -0.209121 -0.014744
v -0.014744 0.517603 -0.014744
v -0.011584 -0.209121 -0.017337
v -0.011584 0.517603 -0.017337
v -0.007979 -0.209121 -0.019264
v -0.007979 0.517603 -0.019264
v -0.004068 -0.209121 -0.020451
v -0.004068 0.517603 -0.020451
vn 0.0980 -0.0000 -0.9952
vn 0.2903 0.0000 -0.9569
vn 0.4714 0.0000 -0.8819
vn 0.6344 -0.0000 -0.7730
vn 0.7730 0.0000 -0.6344
vn 0.8819 -0.0000 -0.4714
vn 0.9569 -0.0000 -0.2903
vn 0.9952 0.0000 -0.0980
vn 0.9952 -0.0000 0.0980
vn 0.9569 -0.0000 0.2903
vn 0.8819 -0.0000 0.4714
vn 0.7730 0.0000 0.6344
vn 0.6344 -0.0000 0.7730
vn 0.4714 0.0000 0.8819
vn 0.2903 0.0000 0.9569
vn 0.0980 0.0000 0.9952
vn -0.0980 0.0000 0.9952
vn -0.2903 0.0000 0.9569
vn -0.4714 0.0000 0.8819
vn -0.6344 -0.0000 0.7730
vn -0.7730 0.0000 0.6344
vn -0.8819 -0.0000 0.4714
vn -0.9569 -0.0000 0.2903
vn -0.9952 -0.0000 0.0980
vn -0.9952 -0.0000 -0.0980
vn -0.9569 -0.0000 -0.2903
vn -0.8819 -0.0000 -0.4714
vn -0.7730 0.0000 -0.6344
vn -0.6344 0.0000 -0.7730
vn -0.4714 0.0000 -0.8819
vn 0.0000 1.0000 0.0000
vn -0.2903 -0.0000 -0.9569
vn -0.0980 0.0000 -0.9952
vn 0.0000 -1.0000 0.0000
usemtl Material.002
s off
f 1//1 2//1 4//1 3//1
f 3//2 4//2 6//2 5//2
f 5//3 6//3 8//3 7//3
f 7//4 8//4 10//4 9//4
f 9//5 10//5 12//5 11//5
f 11//6 12//6 14//6 13//6
f 13//7 14//7 16//7 15//7
f 15//8 16//8 18//8 17//8
f 17//9 18//9 20//9 19//9
f 19//10 20//10 22//10 21//10
f 21//11 22//11 24//11 23//11
f 23//12 24//12 26//12 25//12
f 25//13 26//13 28//13 27//13
f 27//14 28//14 30//14 29//14
f 29//15 30//15 32//15 31//15
f 31//16 32//16 34//16 33//16
f 33//17 34//17 36//17 35//17
f 35//18 36//18 38//18 37//18
f 37//19 38//19 40//19 39//19
f 39//20 40//20 42//20 41//20
f 41//21 42//21 44//21 43//21
f 43//22 44//22 46//22 45//22
f 45//23 46//23 48//23 47//23
f 47//24 48//24 50//24 49//24
f 49//25 50//25 52//25 51//25
f 51//26 52//26 54//26 53//26
f 53//27 54//27 56//27 55//27
f 55//28 56//28 58//28 57//28
f 57//29 58//29 60//29 59//29
f 59//30 60//30 62//30 61//30
f 4//31 2//31 64//31 62//31 60//31 58//31 56//31 54//31 52//31 50//31 48//31 46//31 44//31 42//31 40//31 38//31 36//31 34//31 32//31 30//31 28//31 26//31 24//31 22//31 20//31 18//31 16//31 14//31 12//31 10//31 8//31 6//31
f 61//32 62//32 64//32 63//32
f 63//33 64//33 2//33 1//33
f 1//34 3//34 5//34 7//34 9//34 11//34 13//34 15//34 17//34 19//34 21//34 23//34 25//34 27//34 29//34 31//34 33//34 35//34 37//34 39//34 41//34 43//34 45//34 47//34 49//34 51//34 53//34 55//34 57//34 59//34 61//34 63//34
o Base_Cylinder.001
v 0.000000 -0.274191 -0.250000
v 0.000000 -0.195822 -0.250000
v 0.048773 -0.274191 -0.245196
v 0.048773 -0.195822 -0.245196
v 0.095671 -0.274191 -0.230970
v 0.095671 -0.195822 -0.230970
v 0.138893 -0.274191 -0.207867
v 0.138893 -0.195822 -0.207867
v 0.176777 -0.274191 -0.176777
v 0.176777 -0.195822 -0.176777
v 0.207867 -0.274191 -0.138893
v 0.207867 -0.195822 -0.138893
v 0.230970 -0.274191 -0.095671
v 0.230970 -0.195822 -0.095671
v 0.245196 -0.274191 -0.048773
v 0.245196 -0.195822 -0.048773
v 0.250000 -0.274191 -0.000000
v 0.250000 -0.195822 -0.000000
v 0.245196 -0.274191 0.048773
v 0.245196 -0.195822 0.048773
v 0.230970 -0.274191 0.095671
v 0.230970 -0.195822 0.095671
v 0.207867 -0.274191 0.138893
v 0.207867 -0.195822 0.138893
v 0.176777 -0.274191 0.176777
v 0.176777 -0.195822 0.176777
v 0.138893 -0.274191 0.207867
v 0.138893 -0.195822 0.207867
v 0.095671 -0.274191 0.230970
v 0.095671 -0.195822 0.230970
v 0.048773 -0.274191 0.245196
v 0.048773 -0.195822 0.245196
v -0.000000 -0.274191 0.250000
v -0.000000 -0.195822 0.250000
v -0.048773 -0.274191 0.245196
v -0.048773 -0.195822 0.245196
v -0.095671 -0.274191 0.230970
v -0.095671 -0.195822 0.230970
v -0.138893 -0.274191 0.207867
v -0.138893 -0.195822 0.207867
v -0.176777 -0.274191 0.176777
v -0.176777 -0.195822 0.176777
v -0.207868 -0.274191 0.138892
v -0.207868 -0.195822 0.138892
v -0.230970 -0.274191 0.095671
v -0.230970 -0.195822 0.095671
v -0.245196 -0.274191 0.048772
v -0.245196 -0.195822 0.048772
v -0.250000 -0.274191 -0.000000
v -0.250000 -0.195822 -0.000000
v -0.245196 -0.274191 -0.048773
v -0.245196 -0.195822 -0.048773
v -0.230970 -0.274191 -0.095671
v -0.230970 -0.195822 -0.095671
v -0.207867 -0.274191 -0.138893
v -0.207867 -0.195822 -0.138893
v -0.176776 -0.274191 -0.176777
v -0.176776 -0.195822 -0.176777
v -0.138892 -0.274191 -0.207868
v -0.138892 -0.195822 -0.207868
v -0.095671 -0.274191 -0.230970
v -0.095671 -0.195822 -0.230970
v -0.048772 -0.274191 -0.245196
v -0.048772 -0.195822 -0.245196
vn 0.0980 0.0000 -0.9952
vn 0.2903 0.0000 -0.9569
vn 0.4714 0.0000 -0.8819
vn 0.6344 -0.0000 -0.7730
vn 0.7730 0.0000 -0.6344
vn 0.8819 0.0000 -0.4714
vn 0.9569 0.0000 -0.2903
vn 0.9952 -0.0000 -0.0980
vn 0.9952 0.0000 0.0980
vn 0.9569 0.0000 0.2903
vn 0.8819 0.0000 0.4714
vn 0.7730 0.0000 0.6344
vn 0.6344 0.0000 0.7730
vn 0.4714 -0.0000 0.8819
vn 0.2903 -0.0000 0.9569
vn 0.0980 -0.0000 0.9952
vn -0.0980 0.0000 0.9952
vn -0.2903 0.0000 0.9569
vn -0.4714 0.0000 0.8819
vn -0.6344 -0.0000 0.7730
vn -0.7730 0.0000 0.6344
vn -0.8819 -0.0000 0.4714
vn -0.9569 0.0000 0.2903
vn -0.9952 -0.0000 0.0980
vn -0.9952 -0.0000 -0.0980
vn -0.9569 0.0000 -0.2903
vn -0.8819 -0.0000 -0.4714
vn -0.7730 -0.0000 -0.6344
vn -0.6344 -0.0000 -0.7730
vn -0.4714 -0.0000 -0.8819
vn 0.0000 1.0000 -0.0000
vn -0.2903 0.0000 -0.9569
vn -0.0980 0.0000 -0.9952
vn 0.0000 -1.0000 0.0000
usemtl Material.003
s off
f 65//35 66//35 68//35 67//35
f 67//36 68//36 70//36 69//36
f 69//37 70//37 72//37 71//37
f 71//38 72//38 74//38 73//38
f 73//39 74//39 76//39 75//39
f 75//40 76//40 78//40 77//40
f 77//41 78//41 80//41 79//41
f 79//42 80//42 82//42 81//42
f 81//43 82//43 84//43 83//43
f 83//44 84//44 86//44 85//44
f 85//45 86//45 88//45 87//45
f 87//46 88//46 90//46 89//46
f 89//47 90//47 92//47 91//47
f 91//48 92//48 94//48 93//48
f 93//49 94//49 96//49 95//49
f 95//50 96//50 98//50 97//50
f 97//51 98//51 100//51 99//51
f 99//52 100//52 102//52 101//52
f 101//53 102//53 104//53 103//53
f 103//54 104//54 106//54 105//54
f 105//55 106//55 108//55 107//55
f 107//56 108//56 110//56 109//56
f 109//57 110//57 112//57 111//57
f 111//58 112//58 114//58 113//58
f 113//59 114//59 116//59 115//59
f 115//60 116//60 118//60 117//60
f 117//61 118//61 120//61 119//61
f 119//62 120//62 122//62 121//62
f 121//63 122//63 124//63 123//63
f 123//64 124//64 126//64 125//64
f 68//65 66//65 128//65 126//65 124//65 122//65 120//65 118//65 116//65 114//65 112//65 110//65 108//65 106//65 104//65 102//65 100//65 98//65 96//65 94//65 92//65 90//65 88//65 86//65 84//65 82//65 80//65 78//65 76//65 74//65 72//65 70//65
f 125//66 126//66 128//66 127//66
f 127//67 128//67 66//67 65//67
f 65//68 67//68 69//68 71//68 73//68 75//68 77//68 79//68 81//68 83//68 85//68 87//68 89//68 91//68 93//68 95//68 97//68 99//68 101//68 103//68 105//68 107//68 109//68 111//68 113//68 115//68 117//68 119//68 121//68 123//68 125//68 127//68
o Shade_Cylinder
v -0.000000 0.207584 -0.299594
v 0.000000 0.707584 -0.119729
v 0.058448 0.207584 -0.293837
v 0.023358 0.707584 -0.117428
v 0.114650 0.207584 -0.276789
v 0.045818 0.707584 -0.110615
v 0.166446 0.207584 -0.249103
v 0.066518 0.707584 -0.099551
v 0.211845 0.207584 -0.211845
v 0.084661 0.707584 -0.084661
v 0.249103 0.207584 -0.166446
v 0.099551 0.707584 -0.066518
v 0.276789 0.207584 -0.114650
v 0.110615 0.707584 -0.045818
v 0.293837 0.207584 -0.058448
v 0.117428 0.707584 -0.023358
v 0.299594 0.207584 -0.000000
v 0.119729 0.707584 -0.000000
v 0.293837 0.207584 0.058448
v 0.117428 0.707584 0.023358
v 0.276789 0.207584 0.114650
v 0.110615 0.707584 0.045818
v 0.249103 0.207584 0.166446
v 0.099551 0.707584 0.066518
v 0.211845 0.207584 0.211845
v 0.084661 0.707584 0.084661
v 0.166446 0.207584 0.249103
v 0.066518 0.707584 0.099551
v 0.114650 0.207584 0.276789
v 0.045818 0.707584 0.110615
v 0.058448 0.207584 0.293837
v 0.023358 0.707584 0.117428
v -0.000000 0.207584 0.299594
v -0.000000 0.707584 0.119729
v -0.058448 0.207584 0.293837
v -0.023358 0.707584 0.117428
v -0.114650 0.207584 0.276789
v -0.045818 0.707584 0.110615
v -0.166446 0.207584 0.249103
v -0.066518 0.707584 0.099551
v -0.211845 0.207584 0.211845
v -0.084661 0.707584 0.084661
v -0.249103 0.207584 0.166445
v -0.099551 0.707584 0.066518
v -0.276789 0.207584 0.114649
v -0.110615 0.707584 0.045818
v -0.293837 0.207584 0.058448
v -0.117428 0.707584 0.023358
v -0.299594 0.207584 -0.000000
v -0.119729 0.707584 -0.000000
v -0.293837 0.207584 -0.058448
v -0.117428 0.707584 -0.023358
v -0.276789 0.207584 -0.114650
v -0.110615 0.707584 -0.045818
v -0.249103 0.207584 -0.166446
v -0.099551 0.707584 -0.066518
v -0.211845 0.207584 -0.211845
v -0.084661 0.707584 -0.084661
v -0.166445 0.207584 -0.249104
v -0.066518 0.707584 -0.099551
v -0.114649 0.207584 -0.276789
v -0.045818 0.707584 -0.110615
v -0.058447 0.207584 -0.293837
v -0.023358 0.707584 -0.117428
v -0.000000 0.238934 -0.262025
v 0.051119 0.238934 -0.256990
v 0.020429 0.676234 -0.102703
v 0.000000 0.676234 -0.104715
v 0.100273 0.238934 -0.242080
v 0.040073 0.676234 -0.096744
v 0.145573 0.238934 -0.217866
v 0.058176 0.676234 -0.087067
v 0.185280 0.238934 -0.185280
v 0.074045 0.676234 -0.074045
v 0.217866 0.238934 -0.145573
v 0.087067 0.676234 -0.058176
v 0.242080 0.238934 -0.100273
v 0.096744 0.676234 -0.040073
v 0.256991 0.238934 -0.051119
v 0.102703 0.676234 -0.020429
v 0.262025 0.238934 -0.000000
v 0.104715 0.676234 -0.000000
v 0.256991 0.238934 0.051119
v 0.102703 0.676234 0.020429
v 0.242080 0.238934 0.100273
v 0.096744 0.676234 0.040073
v 0.217866 0.238934 0.145573
v 0.087067 0.676234 0.058176
v 0.185280 0.238934 0.185280
v 0.074045 0.676234 0.074045
v 0.145573 0.238934 0.217866
v 0.058176 0.676234 0.087067
v 0.100273 0.238934 0.242080
v 0.040073 0.676234 0.096744
v 0.051119 0.238934 0.256991
v 0.020429 0.676234 0.102703
v -0.000000 0.238934 0.262025
v -0.000000 0.676234 0.104715
v -0.051119 0.238934 0.256990
v -0.020429 0.676234 0.102703
v -0.100273 0.238934 0.242080
v -0.040073 0.676234 0.096744
v -0.145574 0.238934 0.217866
v -0.058176 0.676234 0.087067
v -0.185280 0.238934 0.185280
v -0.074045 0.676234 0.074044
v -0.217866 0.238934 0.145573
v -0.087067 0.676234 0.058176
v -0.242080 0.238934 0.100273
v -0.096744 0.676234 0.040073
v -0.256991 0.238934 0.051118
v -0.102703 0.676234 0.020429
v -0.262025 0.238934 -0.000000
v -0.104715 0.676234 -0.000000
v -0.256990 0.238934 -0.051119
v -0.102703 0.676234 -0.020429
v -0.242080 0.238934 -0.100273
v -0.096744 0.676234 -0.040073
v -0.217866 0.238934 -0.145574
v -0.087067 0.676234 -0.058177
v -0.185280 0.238934 -0.185280
v -0.074044 0.676234 -0.074045
v -0.145573 0.238934 -0.217866
v -0.058176 0.676234 -0.087067
v -0.100272 0.238934 -0.242080
v -0.040072 0.676234 -0.096744
v -0.051118 0.238934 -0.256991
v -0.020429 0.676234 -0.102703
vn 0.0923 0.3371 -0.9370
vn 0.2733 0.3371 -0.9009
vn 0.4438 0.3371 -0.8303
vn 0.5973 0.3371 -0.7278
vn 0.7278 0.3371 -0.5973
vn 0.8303 0.3371 -0.4438
vn 0.9009 0.3371 -0.2733
vn 0.9370 0.3371 -0.0923
vn 0.9370 0.3371 0.0923
vn 0.9009 0.3371 0.2733
vn 0.8303 0.3371 0.4438
vn 0.7278 0.3371 0.5973
vn 0.5973 0.3371 0.7278
vn 0.4438 0.3371 0.8303
vn 0.2733 0.3371 0.9009
vn 0.0923 0.3371 0.9370
vn -0.0923 0.3371 0.9370
vn -0.2733 0.3371 0.9009
vn -0.4438 0.3371 0.8303
vn -0.5973 0.3371 0.7278
vn -0.7278 0.3371 0.5973
vn -0.8303 0.3371 0.4438
vn -0.9009 0.3371 0.2733
vn -0.9370 0.3371 0.0923
vn -0.9370 0.3371 -0.0923
vn -0.9009 0.3371 -0.2733
vn -0.8303 0.3371 -0.4438
vn -0.7278 0.3371 -0.5973
vn -0.5973 0.3371 -0.7278
vn -0.4438 0.3371 -0.8303
vn -0.2733 0.3371 -0.9009
vn -0.0923 0.3371 -0.9370
vn -0.0923 -0.3371 0.9370
vn -0.2733 -0.3371 0.9009
vn -0.4438 -0.3371 0.8303
vn -0.5973 -0.3371 0.7278
vn -0.7278 -0.3371 0.5973
vn -0.8303 -0.3371 0.4438
vn -0.9009 -0.3371 0.2733
vn -0.9370 -0.3371 0.0923
vn -0.9370 -0.3371 -0.0923
vn -0.9009 -0.3371 -0.2733
vn -0.8303 -0.3371 -0.4438
vn -0.7278 -0.3371 -0.5973
vn -0.5973 -0.3371 -0.7278
vn -0.4438 -0.3371 -0.8303
vn -0.2733 -0.3371 -0.9009
vn -0.0923 -0.3371 -0.9370
vn 0.0923 -0.3371 -0.9370
vn 0.2733 -0.3371 -0.9009
vn 0.4438 -0.3371 -0.8303
vn 0.5973 -0.3371 -0.7278
vn 0.7278 -0.3371 -0.5973
vn 0.8303 -0.3371 -0.4438
vn 0.9009 -0.3371 -0.2733
vn 0.9370 -0.3371 -0.0923
vn 0.9370 -0.3371 0.0923
vn 0.9009 -0.3371 0.2733
vn 0.8303 -0.3371 0.4438
vn 0.7278 -0.3371 0.5973
vn 0.5973 -0.3371 0.7278
vn 0.4438 -0.3371 0.8303
vn 0.2733 -0.3371 0.9009
vn 0.0923 -0.3371 0.9370
vn -0.4967 -0.7663 0.4076
vn 0.4967 -0.7663 -0.4076
vn -0.3029 -0.7663 -0.5667
vn 0.3029 -0.7663 0.5667
vn -0.5727 0.4302 -0.6978
vn 0.5727 0.4302 0.6978
vn -0.6149 -0.7663 0.1865
vn 0.6149 -0.7663 -0.1865
vn -0.7961 0.4302 0.4255
vn 0.7961 0.4302 -0.4255
vn -0.2620 0.4302 -0.8638
vn 0.2620 0.4302 0.8638
vn -0.8984 0.4302 0.0885
vn 0.8984 0.4302 -0.0885
vn -0.0630 -0.7663 0.6394
vn -0.0630 -0.7663 -0.6394
vn 0.0630 -0.7663 0.6394
vn -0.6394 -0.7663 -0.0630
vn 0.6394 -0.7663 0.0630
vn -0.1865 -0.7663 0.6149
vn 0.1865 -0.7663 -0.6149
vn 0.0885 0.4302 -0.8984
vn -0.5667 -0.7663 -0.3029
vn 0.5666 -0.7663 0.3029
vn -0.8638 0.4302 -0.2620
vn 0.8638 0.4302 0.2620
vn -0.4255 0.4302 0.7961
vn 0.4255 0.4302 -0.7961
vn -0.6978 0.4302 -0.5727
vn 0.6978 0.4302 0.5727
vn -0.4076 -0.7663 0.4967
vn 0.4076 -0.7663 -0.4967
vn -0.4076 -0.7663 -0.4967
vn 0.4076 -0.7663 0.4967
vn -0.5667 -0.7663 0.3029
vn 0.5667 -0.7663 -0.3029
vn -0.6978 0.4302 0.5727
vn 0.6978 0.4302 -0.5727
vn -0.1865 -0.7663 -0.6149
vn 0.1865 -0.7663 0.6149
vn -0.4255 0.4302 -0.7961
vn 0.4255 0.4302 0.7961
vn -0.8638 0.4302 0.2620
vn 0.8638 0.4302 -0.2620
vn -0.0885 0.4302 -0.8984
vn 0.0885 0.4302 0.8984
vn -0.6394 -0.7663 0.0630
vn 0.6394 -0.7663 -0.0630
vn -0.0885 0.4302 0.8984
vn 0.0630 -0.7663 -0.6394
vn -0.6149 -0.7663 -0.1865
vn 0.6149 -0.7663 0.1865
vn -0.8984 0.4302 -0.0885
vn 0.8984 0.4302 0.0885
vn -0.3029 -0.7663 0.5667
vn 0.3029 -0.7663 -0.5666
vn -0.2620 0.4302 0.8638
vn 0.2620 0.4302 -0.8638
vn -0.7961 0.4302 -0.4255
vn 0.7961 0.4302 0.4255
vn -0.5727 0.4302 0.6978
vn 0.5727 0.4302 -0.6978
vn -0.4967 -0.7663 -0.4076
vn 0.4967 -0.7663 0.4076
usemtl Material.001
s off
f 129//69 130//69 132//69 131//69
f 131//70 132//70 134//70 133//70
f 133//71 134//71 136//71 135//71
f 135//72 136//72 138//72 137//72
f 137//73 138//73 140//73 139//73
f 139//74 140//74 142//74 141//74
f 141//75 142//75 144//75 143//75
f 143//76 144//76 146//76 145//76
f 145//77 146//77 148//77 147//77
f 147//78 148//78 150//78 149//78
f 149//79 150//79 152//79 151//79
f 151//80 152//80 154//80 153//80
f 153//81 154//81 156//81 155//81
f 155//82 156//82 158//82 157//82
f 157//83 158//83 160//83 159//83
f 159//84 160//84 162//84 161//84
f 161//85 162//85 164//85 163//85
f 163//86 164//86 166//86 165//86
f 165//87 166//87 168//87 167//87
f 167//88 168//88 170//88 169//88
f 169//89 170//89 172//89 171//89
f 171//90 172//90 174//90 173//90
f 173//91 174//91 176//91 175//91
f 175//92 176//92 178//92 177//92
f 177//93 178//93 180//93 179//93
f 179//94 180//94 182//94 181//94
f 181//95 182//95 184//95 183//95
f 183//96 184//96 186//96 185//96
f 185//97 186//97 188//97 187//97
f 187//98 188//98 190//98 189//98
f 189//99 190//99 192//99 191//99
f 191//100 192//100 130//100 129//100
f 193//101 194//101 195//101 196//101
f 194//102 197//102 198//102 195//102
f 197//103 199//103 200//103 198//103
f 199//104 201//104 202//104 200//104
f 201//105 203//105 204//105 202//105
f 203//106 205//106 206//106 204//106
f 205//107 207//107 208//107 206//107
f 207//108 209//108 210//108 208//108
f 209//109 211//109 212//109 210//109
f 211//110 213//110 214//110 212//110
f 213//111 215//111 216//111 214//111
f 215//112 217//112 218//112 216//112
f 217//113 219//113 220//113 218//113
f 219//114 221//114 222//114 220//114
f 221//115 223//115 224//115 222//115
f 223//116 225//116 226//116 224//116
f 225//117 227//117 228//117 226//117
f 227//118 229//118 230//118 228//118
f 229//119 231//119 232//119 230//119
f 231//120 233//120 234//120 232//120
f 233//121 235//121 236//121 234//121
f 235//122 237//122 238//122 236//122
f 237//123 239//123 240//123 238//123
f 239//124 241//124 242//124 240//124
f 241//125 243//125 244//125 242//125
f 243//126 245//126 246//126 244//126
f 245//127 247//127 248//127 246//127
f 247//128 249//128 250//128 248//128
f 249//129 251//129 252//129 250//129
f 251//130 253//130 254//130 252//130
f 253//131 255//131 256//131 254//131
f 255//132 193//132 196//132 256//132
f 139//133 203//133 201//133 137//133
f 171//134 235//134 233//134 169//134
f 157//135 221//135 219//135 155//135
f 189//136 253//136 251//136 187//136
f 154//137 218//137 220//137 156//137
f 186//138 250//138 252//138 188//138
f 143//139 207//139 205//139 141//139
f 175//140 239//140 237//140 173//140
f 140//141 204//141 206//141 142//141
f 172//142 236//142 238//142 174//142
f 158//143 222//143 224//143 160//143
f 190//144 254//144 256//144 192//144
f 144//145 208//145 210//145 146//145
f 176//146 240//146 242//146 178//146
f 131//147 194//147 193//147 129//147
f 161//148 225//148 223//148 159//148
f 129//149 193//149 255//149 191//149
f 147//150 211//150 209//150 145//150
f 179//151 243//151 241//151 177//151
f 133//152 197//152 194//152 131//152
f 165//153 229//153 227//153 163//153
f 162//154 226//154 228//154 164//154
f 151//155 215//155 213//155 149//155
f 183//156 247//156 245//156 181//156
f 148//157 212//157 214//157 150//157
f 180//158 244//158 246//158 182//158
f 134//159 198//159 200//159 136//159
f 166//160 230//160 232//160 168//160
f 152//161 216//161 218//161 154//161
f 184//162 248//162 250//162 186//162
f 137//163 201//163 199//163 135//163
f 169//164 233//164 231//164 167//164
f 155//165 219//165 217//165 153//165
f 187//166 251//166 249//166 185//166
f 141//167 205//167 203//167 139//167
f 173//168 237//168 235//168 171//168
f 138//169 202//169 204//169 140//169
f 170//170 234//170 236//170 172//170
f 159//171 223//171 221//171 157//171
f 191//172 255//172 253//172 189//172
f 156//173 220//173 222//173 158//173
f 188//174 252//174 254//174 190//174
f 142//175 206//175 208//175 144//175
f 174//176 238//176 240//176 176//176
f 160//177 224//177 226//177 162//177
f 192//178 256//178 196//178 130//178
f 145//179 209//179 207//179 143//179
f 177//180 241//180 239//180 175//180
f 130//181 196//181 195//181 132//181
f 163//182 227//182 225//182 161//182
f 149//183 213//183 211//183 147//183
f 181//184 245//184 243//184 179//184
f 146//185 210//185 212//185 148//185
f 178//186 242//186 244//186 180//186
f 135//187 199//187 197//187 133//187
f 167//188 231//188 229//188 165//188
f 132//189 195//189 198//189 134//189
f 164//190 228//190 230//190 166//190
f 150//191 214//191 216//191 152//191
f 182//192 246//192 248//192 184//192
f 136//193 200//193 202//193 138//193
f 168//194 232//194 234//194 170//194
f 153//195 217//195 215//195 151//195
f 185//196 249//196 247//196 183//196
