# Blender v2.78 (sub 0) OBJ File: 'MailBox.blend'
# www.blender.org
mtllib MailBox.mtl
o Cube.002_Cube.003
v -0.193029 1.424975 -0.242444
v -0.193029 1.591035 -0.242444
v -0.193029 1.424975 -0.442244
v -0.193029 1.591035 -0.442244
v -0.170175 1.424975 -0.242444
v -0.170175 1.591035 -0.242444
v -0.170175 1.424975 -0.442244
v -0.170175 1.591035 -0.442244
v 0.167935 1.554921 -0.235261
v 0.167935 1.594311 -0.235261
v 0.167935 1.554921 -0.442614
v 0.167935 1.594311 -0.442614
v -0.176199 1.554921 -0.235261
v -0.176199 1.594311 -0.235261
v -0.176199 1.554921 -0.442614
v -0.176199 1.594311 -0.442614
v 0.167935 1.459352 -0.235261
v 0.167935 1.419961 -0.235261
v 0.167935 1.459352 -0.442614
v 0.167935 1.419961 -0.442614
v -0.176199 1.459352 -0.235261
v -0.176199 1.419961 -0.235261
v -0.176199 1.459352 -0.442614
v -0.176199 1.419961 -0.442614
v 0.192297 1.424975 -0.242444
v 0.192297 1.591035 -0.242444
v 0.192297 1.424975 -0.442244
v 0.192297 1.591035 -0.442244
v 0.169443 1.424975 -0.242444
v 0.169443 1.591035 -0.242444
v 0.169443 1.424975 -0.442244
v 0.169443 1.591035 -0.442244
v -0.168667 1.554921 -0.235261
v -0.168667 1.594311 -0.235261
v -0.168667 1.554921 -0.442614
v -0.168667 1.594311 -0.442614
v 0.175467 1.554921 -0.235261
v 0.175467 1.594311 -0.235261
v 0.175467 1.554921 -0.442614
v 0.175467 1.594311 -0.442614
v -0.168667 1.459352 -0.235261
v -0.168667 1.419961 -0.235261
v -0.168667 1.459352 -0.442614
v -0.168667 1.419961 -0.442614
v 0.175467 1.459352 -0.235261
v 0.175467 1.419961 -0.235261
v 0.175467 1.459352 -0.442614
v 0.175467 1.419961 -0.442614
vn -1.0000 0.0000 0.0000
vn 0.0000 0.0000 -1.0000
vn 1.0000 -0.0000 0.0000
vn 0.0000 0.0000 1.0000
vn 0.0000 -1.0000 0.0000
vn 0.0000 1.0000 -0.0000
g Cube.002_Cube.003_Metal
usemtl Metal
s off
f 1//1 2//1 4//1 3//1
f 3//2 4//2 8//2 7//2
f 7//3 8//3 6//3 5//3
f 5//4 6//4 2//4 1//4
f 3//5 7//5 5//5 1//5
f 8//6 4//6 2//6 6//6
f 9//1 10//1 12//1 11//1
f 11//4 12//4 16//4 15//4
f 15//3 16//3 14//3 13//3
f 13//2 14//2 10//2 9//2
f 11//6 15//6 13//6 9//6
f 16//5 12//5 10//5 14//5
f 17//1 19//1 20//1 18//1
f 19//4 23//4 24//4 20//4
f 23//3 21//3 22//3 24//3
f 21//2 17//2 18//2 22//2
f 19//5 17//5 21//5 23//5
f 24//6 22//6 18//6 20//6
f 13//2 9//2 17//2 21//2
f 25//3 27//3 28//3 26//3
f 27//2 31//2 32//2 28//2
f 31//1 29//1 30//1 32//1
f 29//4 25//4 26//4 30//4
f 27//5 25//5 29//5 31//5
f 32//6 30//6 26//6 28//6
f 33//3 35//3 36//3 34//3
f 35//4 39//4 40//4 36//4
f 39//1 37//1 38//1 40//1
f 37//2 33//2 34//2 38//2
f 35//6 33//6 37//6 39//6
f 40//5 38//5 34//5 36//5
f 41//3 42//3 44//3 43//3
f 43//4 44//4 48//4 47//4
f 47//1 48//1 46//1 45//1
f 45//2 46//2 42//2 41//2
f 43//5 47//5 45//5 41//5
f 48//6 44//6 42//6 46//6
f 37//2 45//2 41//2 33//2
o Cube_Cube.001
v -0.208101 1.321195 0.443799
v -0.208101 1.647390 0.443799
v -0.208101 1.321195 -0.443799
v -0.208101 1.647390 -0.443799
v 0.208101 1.321195 0.443799
v 0.208101 1.647390 0.443799
v 0.208101 1.321195 -0.443799
v 0.208101 1.647390 -0.443799
v 0.000000 1.846391 0.443799
v 0.000000 1.846391 -0.443799
v 0.169869 1.560953 -0.443799
v -0.174265 1.560953 -0.443799
v -0.174265 1.455560 -0.443799
v 0.169869 1.455560 -0.443799
vn -1.0000 -0.0000 0.0000
vn -0.0000 0.0000 -1.0000
vn 1.0000 -0.0000 0.0000
vn 0.0000 0.0000 1.0000
vn 0.0000 -1.0000 -0.0000
vn 0.0000 1.0000 0.0000
vn 0.6911 0.7227 0.0000
vn -0.6911 0.7227 -0.0000
g Cube_Cube.001_Metal
usemtl Metal
s off
f 49//7 50//7 52//7 51//7
f 51//8 61//8 62//8 59//8 56//8 55//8
f 55//9 56//9 54//9 53//9
f 53//10 54//10 50//10 49//10
f 51//11 55//11 53//11 49//11
f 56//12 52//12 50//12 54//12
f 56//13 58//13 57//13 54//13
f 50//14 57//14 58//14 52//14
f 56//8 59//8 60//8 61//8 51//8 52//8
f 58//8 56//8 52//8
f 57//10 50//10 54//10
o Cylinder
v 0.000000 -0.013450 -0.053930
v 0.000000 1.420217 -0.053930
v 0.010521 -0.013450 -0.052894
v 0.010521 1.420217 -0.052894
v 0.020638 -0.013450 -0.049825
v 0.020638 1.420217 -0.049825
v 0.029962 -0.013450 -0.044841
v 0.029962 1.420217 -0.044841
v 0.038134 -0.013450 -0.038134
v 0.038134 1.420217 -0.038134
v 0.044841 -0.013450 -0.029962
v 0.044841 1.420217 -0.029962
v 0.049825 -0.013450 -0.020638
v 0.049825 1.420217 -0.020638
v 0.052894 -0.013450 -0.010521
v 0.052894 1.420217 -0.010521
v 0.053930 -0.013450 -0.000000
v 0.053930 1.420217 -0.000000
v 0.052894 -0.013450 0.010521
v 0.052894 1.420217 0.010521
v 0.049825 -0.013450 0.020638
v 0.049825 1.420217 0.020638
v 0.044841 -0.013450 0.029962
v 0.044841 1.420217 0.029962
v 0.038134 -0.013450 0.038134
v 0.038134 1.420217 0.038134
v 0.029962 -0.013450 0.044841
v 0.029962 1.420217 0.044841
v 0.020638 -0.013450 0.049825
v 0.020638 1.420217 0.049825
v 0.010521 -0.013450 0.052894
v 0.010521 1.420217 0.052894
v -0.000000 -0.013450 0.053930
v -0.000000 1.420217 0.053930
v -0.010521 -0.013450 0.052894
v -0.010521 1.420217 0.052894
v -0.020638 -0.013450 0.049825
v -0.020638 1.420217 0.049825
v -0.029962 -0.013450 0.044841
v -0.029962 1.420217 0.044841
v -0.038134 -0.013450 0.038134
v -0.038134 1.420217 0.038134
v -0.044841 -0.013450 0.029962
v -0.044841 1.420217 0.029962
v -0.049825 -0.013450 0.020638
v -0.049825 1.420217 0.020638
v -0.052894 -0.013450 0.010521
v -0.052894 1.420217 0.010521
v -0.053930 -0.013450 -0.000000
v -0.053930 1.420217 -0.000000
v -0.052894 -0.013450 -0.010521
v -0.052894 1.420217 -0.010521
v -0.049825 -0.013450 -0.020638
v -0.049825 1.420217 -0.020638
v -0.044841 -0.013450 -0.029962
v -0.044841 1.420217 -0.029962
v -0.038134 -0.013450 -0.038134
v -0.038134 1.420217 -0.038134
v -0.029962 -0.013450 -0.044841
v -0.029962 1.420217 -0.044841
v -0.020638 -0.013450 -0.049825
v -0.020638 1.420217 -0.049825
v -0.010521 -0.013450 -0.052894
v -0.010521 1.420217 -0.052894
vn 0.0980 0.0000 -0.9952
vn 0.2903 -0.0000 -0.9569
vn 0.4714 -0.0000 -0.8819
vn 0.6344 0.0000 -0.7730
vn 0.7730 -0.0000 -0.6344
vn 0.8819 -0.0000 -0.4714
vn 0.9569 -0.0000 -0.2903
vn 0.9952 0.0000 -0.0980
vn 0.9952 0.0000 0.0980
vn 0.9569 -0.0000 0.2903
vn 0.8819 -0.0000 0.4714
vn 0.7730 -0.0000 0.6344
vn 0.6344 -0.0000 0.7730
vn 0.4714 -0.0000 0.8819
vn 0.2903 -0.0000 0.9569
vn 0.0980 0.0000 0.9952
vn -0.0980 -0.0000 0.9952
vn -0.2903 0.0000 0.9569
vn -0.4714 -0.0000 0.8819
vn -0.6344 0.0000 0.7730
vn -0.7730 0.0000 0.6344
vn -0.8819 -0.0000 0.4714
vn -0.9569 0.0000 0.2903
vn -0.9952 0.0000 0.0980
vn -0.9952 0.0000 -0.0980
vn -0.9569 -0.0000 -0.2903
vn -0.8819 0.0000 -0.4714
vn -0.7730 -0.0000 -0.6344
vn -0.6344 -0.0000 -0.7730
vn -0.4714 0.0000 -0.8819
vn 0.0000 1.0000 -0.0000
vn -0.2903 0.0000 -0.9569
vn -0.0980 0.0000 -0.9952
vn 0.0000 -1.0000 0.0000
g Cylinder_Cylinder_Metal
usemtl Metal
s off
f 63//15 64//15 66//15 65//15
f 65//16 66//16 68//16 67//16
f 67//17 68//17 70//17 69//17
f 69//18 70//18 72//18 71//18
f 71//19 72//19 74//19 73//19
f 73//20 74//20 76//20 75//20
f 75//21 76//21 78//21 77//21
f 77//22 78//22 80//22 79//22
f 79//23 80//23 82//23 81//23
f 81//24 82//24 84//24 83//24
f 83//25 84//25 86//25 85//25
f 85//26 86//26 88//26 87//26
f 87//27 88//27 90//27 89//27
f 89//28 90//28 92//28 91//28
f 91//29 92//29 94//29 93//29
f 93//30 94//30 96//30 95//30
f 95//31 96//31 98//31 97//31
f 97//32 98//32 100//32 99//32
f 99//33 100//33 102//33 101//33
f 101//34 102//34 104//34 103//34
f 103//35 104//35 106//35 105//35
f 105//36 106//36 108//36 107//36
f 107//37 108//37 110//37 109//37
f 109//38 110//38 112//38 111//38
f 111//39 112//39 114//39 113//39
f 113//40 114//40 116//40 115//40
f 115//41 116//41 118//41 117//41
f 117//42 118//42 120//42 119//42
f 119//43 120//43 122//43 121//43
f 121//44 122//44 124//44 123//44
f 66//45 64//45 126//45 124//45 122//45 120//45 118//45 116//45 114//45 112//45 110//45 108//45 106//45 104//45 102//45 100//45 98//45 96//45 94//45 92//45 90//45 88//45 86//45 84//45 82//45 80//45 78//45 76//45 74//45 72//45 70//45 68//45
f 123//46 124//46 126//46 125//46
f 125//47 126//47 64//47 63//47
f 63//48 65//48 67//48 69//48 71//48 73//48 75//48 77//48 79//48 81//48 83//48 85//48 87//48 89//48 91//48 93//48 95//48 97//48 99//48 101//48 103//48 105//48 107//48 109//48 111//48 113//48 115//48 117//48 119//48 121//48 123//48 125//48
